<?xml version="1.0" encoding="UTF-8" standalone="no"?>
<!DOCTYPE svg PUBLIC "-//W3C//DTD SVG 1.1//EN" "http://www.w3.org/Graphics/SVG/1.1/DTD/svg11.dtd">
<svg width="100%" height="100%" viewBox="0 0 500 500" version="1.1" xmlns="http://www.w3.org/2000/svg" xmlns:xlink="http://www.w3.org/1999/xlink" xml:space="preserve" xmlns:serif="http://www.serif.com/" style="fill-rule:evenodd;clip-rule:evenodd;stroke-linecap:round;stroke-linejoin:round;stroke-miterlimit:1.5;">
    <g transform="matrix(1.07795,0,0,1.24896,-26.6974,-31.88)">
        <path d="M488.612,81.572L488.612,369.813C488.612,400.746 459.514,425.86 423.674,425.86L89.705,425.86C53.865,425.86 24.767,400.746 24.767,369.813L24.767,81.572C24.767,50.639 53.865,25.525 89.705,25.525L423.674,25.525C459.514,25.525 488.612,50.639 488.612,81.572Z" style="fill:white;"/>
        <path d="M488.612,81.572L488.612,369.813C488.612,400.746 459.514,425.86 423.674,425.86L89.705,425.86C53.865,425.86 24.767,400.746 24.767,369.813L24.767,81.572C24.767,50.639 53.865,25.525 89.705,25.525L423.674,25.525C459.514,25.525 488.612,50.639 488.612,81.572ZM476.243,81.572C476.243,56.531 452.687,36.201 423.674,36.201L89.705,36.201C60.692,36.201 37.136,56.531 37.136,81.572L37.136,369.813C37.136,394.854 60.692,415.184 89.705,415.184L423.674,415.184C452.687,415.184 476.243,394.854 476.243,369.813L476.243,81.572Z"/>
    </g>
    <path d="M53.725,402.341L446.49,402.341" style="fill:none;stroke:rgb(0,124,159);stroke-width:13.33px;"/>
    <path d="M53.725,97.718C249.844,98.252 250,97.718 250,97.718L446.445,233.051" style="fill:none;stroke:rgb(0,51,160);stroke-width:13.33px;"/>
    <path d="M53.725,250L446.445,250" style="fill:none;stroke:rgb(255,205,0);stroke-width:13.33px;"/>
    <path d="M250,386.321L446.49,261.575" style="fill:none;stroke:rgb(0,133,34);stroke-width:13.33px;"/>
    <path d="M243.333,250.006L256.667,249.994L256.673,257.583L243.34,257.594L243.333,250.006ZM243.353,272.771L256.687,272.76L256.7,287.937L243.367,287.948L243.353,272.771ZM243.38,303.125L256.714,303.114L256.727,318.291L243.394,318.302L243.38,303.125ZM243.407,333.48L256.74,333.468L256.754,348.645L243.42,348.657L243.407,333.48ZM243.434,363.834L256.767,363.822L256.774,371.41L243.441,371.422L243.434,363.834Z" style="fill:rgb(208,65,16);"/>
    <g transform="matrix(1.32613,0,0,2.10604,218.74,-449.206)">
        <path d="M182.837,324.632L182.837,339.37C182.837,343.238 177.849,346.379 171.706,346.379C165.562,346.379 160.575,343.238 160.575,339.37L160.575,324.632C160.575,320.764 165.562,317.623 171.706,317.623C177.849,317.623 182.837,320.764 182.837,324.632Z" style="fill:white;"/>
        <path d="M182.837,324.632L182.837,339.37C182.837,343.238 177.849,346.379 171.706,346.379C165.562,346.379 160.575,343.238 160.575,339.37L160.575,324.632C160.575,320.764 165.562,317.623 171.706,317.623C177.849,317.623 182.837,320.764 182.837,324.632ZM178.815,324.632C178.815,322.161 175.629,320.155 171.706,320.155C167.782,320.155 164.596,322.161 164.596,324.632L164.596,339.37C164.596,341.841 167.782,343.847 171.706,343.847C175.629,343.847 178.815,341.841 178.815,339.37L178.815,324.632Z" style="fill:rgb(43,43,43);"/>
    </g>
    <g transform="matrix(1.11796,0,0,1.01528,190.08,148.97)">
        <ellipse cx="53.597" cy="99.509" rx="14.195" ry="15.317" style="fill:white;"/>
        <path d="M53.597,84.193C61.432,84.193 67.792,91.056 67.792,99.509C67.792,107.963 61.432,114.826 53.597,114.826C45.763,114.826 39.402,107.963 39.402,99.509C39.402,91.056 45.763,84.193 53.597,84.193ZM53.597,89.446C48.422,89.446 44.173,93.925 44.173,99.509C44.173,105.093 48.422,109.573 53.597,109.573C58.772,109.573 63.021,105.093 63.021,99.509C63.021,93.925 58.772,89.446 53.597,89.446Z" style="fill:rgb(43,43,43);"/>
    </g>
    <g transform="matrix(1.11796,0,0,1.01528,386.57,301.311)">
        <ellipse cx="53.597" cy="99.509" rx="14.195" ry="15.317" style="fill:white;"/>
        <path d="M53.597,84.193C61.432,84.193 67.792,91.056 67.792,99.509C67.792,107.963 61.432,114.826 53.597,114.826C45.763,114.826 39.402,107.963 39.402,99.509C39.402,91.056 45.763,84.193 53.597,84.193ZM53.597,89.446C48.422,89.446 44.173,93.925 44.173,99.509C44.173,105.093 48.422,109.573 53.597,109.573C58.772,109.573 63.021,105.093 63.021,99.509C63.021,93.925 58.772,89.446 53.597,89.446Z" style="fill:rgb(43,43,43);"/>
    </g>
    <g transform="matrix(1.11796,0,0,1.01528,-6.19491,-3.3116)">
        <ellipse cx="53.597" cy="99.509" rx="14.195" ry="15.317" style="fill:white;"/>
        <path d="M53.597,84.193C61.432,84.193 67.792,91.056 67.792,99.509C67.792,107.963 61.432,114.826 53.597,114.826C45.763,114.826 39.402,107.963 39.402,99.509C39.402,91.056 45.763,84.193 53.597,84.193ZM53.597,89.446C48.422,89.446 44.173,93.925 44.173,99.509C44.173,105.093 48.422,109.573 53.597,109.573C58.772,109.573 63.021,105.093 63.021,99.509C63.021,93.925 58.772,89.446 53.597,89.446Z" style="fill:rgb(43,43,43);"/>
    </g>
    <g transform="matrix(1.11796,0,0,1.01528,190.08,-3.3116)">
        <ellipse cx="53.597" cy="99.509" rx="14.195" ry="15.317" style="fill:white;"/>
        <path d="M53.597,84.193C61.432,84.193 67.792,91.056 67.792,99.509C67.792,107.963 61.432,114.826 53.597,114.826C45.763,114.826 39.402,107.963 39.402,99.509C39.402,91.056 45.763,84.193 53.597,84.193ZM53.597,89.446C48.422,89.446 44.173,93.925 44.173,99.509C44.173,105.093 48.422,109.573 53.597,109.573C58.772,109.573 63.021,105.093 63.021,99.509C63.021,93.925 58.772,89.446 53.597,89.446Z" style="fill:rgb(43,43,43);"/>
    </g>
    <g transform="matrix(1.11796,0,0,1.01528,-6.19491,148.97)">
        <ellipse cx="53.597" cy="99.509" rx="14.195" ry="15.317" style="fill:white;"/>
        <path d="M53.597,84.193C61.432,84.193 67.792,91.056 67.792,99.509C67.792,107.963 61.432,114.826 53.597,114.826C45.763,114.826 39.402,107.963 39.402,99.509C39.402,91.056 45.763,84.193 53.597,84.193ZM53.597,89.446C48.422,89.446 44.173,93.925 44.173,99.509C44.173,105.093 48.422,109.573 53.597,109.573C58.772,109.573 63.021,105.093 63.021,99.509C63.021,93.925 58.772,89.446 53.597,89.446Z" style="fill:rgb(43,43,43);"/>
    </g>
    <g transform="matrix(1.11796,0,0,1.01528,-6.19491,301.311)">
        <ellipse cx="53.597" cy="99.509" rx="14.195" ry="15.317" style="fill:white;"/>
        <path d="M53.597,84.193C61.432,84.193 67.792,91.056 67.792,99.509C67.792,107.963 61.432,114.826 53.597,114.826C45.763,114.826 39.402,107.963 39.402,99.509C39.402,91.056 45.763,84.193 53.597,84.193ZM53.597,89.446C48.422,89.446 44.173,93.925 44.173,99.509C44.173,105.093 48.422,109.573 53.597,109.573C58.772,109.573 63.021,105.093 63.021,99.509C63.021,93.925 58.772,89.446 53.597,89.446Z" style="fill:rgb(43,43,43);"/>
    </g>
    <g transform="matrix(1.32613,0,0,2.10604,22.2958,-312.885)">
        <path d="M182.837,324.632L182.837,339.37C182.837,343.238 177.849,346.379 171.706,346.379C165.562,346.379 160.575,343.238 160.575,339.37L160.575,324.632C160.575,320.764 165.562,317.623 171.706,317.623C177.849,317.623 182.837,320.764 182.837,324.632Z" style="fill:white;"/>
        <path d="M182.837,324.632L182.837,339.37C182.837,343.238 177.849,346.379 171.706,346.379C165.562,346.379 160.575,343.238 160.575,339.37L160.575,324.632C160.575,320.764 165.562,317.623 171.706,317.623C177.849,317.623 182.837,320.764 182.837,324.632ZM178.815,324.632C178.815,322.161 175.629,320.155 171.706,320.155C167.782,320.155 164.596,322.161 164.596,324.632L164.596,339.37C164.596,341.841 167.782,343.847 171.706,343.847C175.629,343.847 178.815,341.841 178.815,339.37L178.815,324.632Z" style="fill:rgb(43,43,43);"/>
    </g>
</svg>
